<svg id="esdlYRDZw6M1" xmlns="http://www.w3.org/2000/svg" xmlns:xlink="http://www.w3.org/1999/xlink" viewBox="0 0 1920 1080" shape-rendering="geometricPrecision" text-rendering="geometricPrecision"><defs><filter id="esdlYRDZw6M2-filter" x="-150%" width="400%" y="-150%" height="400%"><feGaussianBlur id="esdlYRDZw6M2-filter-blur-0" stdDeviation="20,20" result="result"/></filter><filter id="esdlYRDZw6M3-filter" x="-150%" width="400%" y="-150%" height="400%"><feGaussianBlur id="esdlYRDZw6M3-filter-blur-0" stdDeviation="30,30" result="result"/></filter><filter id="esdlYRDZw6M4-filter" x="-150%" width="400%" y="-150%" height="400%"><feGaussianBlur id="esdlYRDZw6M4-filter-blur-0" stdDeviation="20,20" result="result"/></filter><filter id="esdlYRDZw6M5-filter" x="-150%" width="400%" y="-150%" height="400%"><feGaussianBlur id="esdlYRDZw6M5-filter-blur-0" stdDeviation="50,50" result="result"/></filter><filter id="esdlYRDZw6M6-filter" x="-150%" width="400%" y="-150%" height="400%"><feGaussianBlur id="esdlYRDZw6M6-filter-blur-0" stdDeviation="20,20" result="result"/></filter><filter id="esdlYRDZw6M7-filter" x="-150%" width="400%" y="-150%" height="400%"><feGaussianBlur id="esdlYRDZw6M7-filter-blur-0" stdDeviation="40,40" result="result"/></filter><filter id="esdlYRDZw6M9-filter" x="-150%" width="400%" y="-150%" height="400%"><feGaussianBlur id="esdlYRDZw6M9-filter-blur-0" stdDeviation="30,30" result="result"/></filter><filter id="esdlYRDZw6M10-filter" x="-150%" width="400%" y="-150%" height="400%"><feGaussianBlur id="esdlYRDZw6M10-filter-blur-0" stdDeviation="20,20" result="result"/></filter><filter id="esdlYRDZw6M11-filter" x="-150%" width="400%" y="-150%" height="400%"><feGaussianBlur id="esdlYRDZw6M11-filter-blur-0" stdDeviation="10,10" result="result"/></filter><filter id="esdlYRDZw6M14-filter" x="-150%" width="400%" y="-150%" height="400%"><feGaussianBlur id="esdlYRDZw6M14-filter-blur-0" stdDeviation="16,16" result="result"/></filter><filter id="esdlYRDZw6M15-filter" x="-150%" width="400%" y="-150%" height="400%"><feGaussianBlur id="esdlYRDZw6M15-filter-blur-0" stdDeviation="40,40" result="result"/></filter><filter id="esdlYRDZw6M18-filter" x="-150%" width="400%" y="-150%" height="400%"><feGaussianBlur id="esdlYRDZw6M18-filter-blur-0" stdDeviation="30,30" result="result"/></filter><filter id="esdlYRDZw6M19-filter" x="-150%" width="400%" y="-150%" height="400%"><feGaussianBlur id="esdlYRDZw6M19-filter-blur-0" stdDeviation="30,30" result="result"/></filter><filter id="esdlYRDZw6M20-filter" x="-150%" width="400%" y="-150%" height="400%"><feGaussianBlur id="esdlYRDZw6M20-filter-blur-0" stdDeviation="20,20" result="result"/></filter><filter id="esdlYRDZw6M21-filter" x="-150%" width="400%" y="-150%" height="400%"><feGaussianBlur id="esdlYRDZw6M21-filter-blur-0" stdDeviation="14,14" result="result"/></filter><filter id="esdlYRDZw6M22-filter" x="-150%" width="400%" y="-150%" height="400%"><feGaussianBlur id="esdlYRDZw6M22-filter-blur-0" stdDeviation="4,4" result="result"/></filter><filter id="esdlYRDZw6M23-filter" x="-150%" width="400%" y="-150%" height="400%"><feGaussianBlur id="esdlYRDZw6M23-filter-blur-0" stdDeviation="4,4" result="result"/></filter><filter id="esdlYRDZw6M24-filter" x="-150%" width="400%" y="-150%" height="400%"><feGaussianBlur id="esdlYRDZw6M24-filter-blur-0" stdDeviation="10,0" result="result"/></filter><filter id="esdlYRDZw6M25-filter" x="-150%" width="400%" y="-150%" height="400%"><feGaussianBlur id="esdlYRDZw6M25-filter-blur-0" stdDeviation="10,0" result="result"/></filter><filter id="esdlYRDZw6M26-filter" x="-150%" width="400%" y="-150%" height="400%"><feGaussianBlur id="esdlYRDZw6M26-filter-blur-0" stdDeviation="6,0" result="result"/></filter><filter id="esdlYRDZw6M27-filter" x="-150%" width="400%" y="-150%" height="400%"><feGaussianBlur id="esdlYRDZw6M27-filter-blur-0" stdDeviation="6,0" result="result"/></filter><filter id="esdlYRDZw6M28-filter" x="-150%" width="400%" y="-150%" height="400%"><feGaussianBlur id="esdlYRDZw6M28-filter-blur-0" stdDeviation="10,10" result="result"/></filter><filter id="esdlYRDZw6M29-filter" x="-150%" width="400%" y="-150%" height="400%"><feGaussianBlur id="esdlYRDZw6M29-filter-blur-0" stdDeviation="10,10" result="result"/></filter><filter id="esdlYRDZw6M30-filter" x="-150%" width="400%" y="-150%" height="400%"><feGaussianBlur id="esdlYRDZw6M30-filter-blur-0" stdDeviation="0,0" result="result"/></filter><filter id="esdlYRDZw6M31-filter" x="-150%" width="400%" y="-150%" height="400%"><feGaussianBlur id="esdlYRDZw6M31-filter-blur-0" stdDeviation="40,40" result="result"/></filter><filter id="esdlYRDZw6M34-filter" x="-150%" width="400%" y="-150%" height="400%"><feGaussianBlur id="esdlYRDZw6M34-filter-blur-0" stdDeviation="30,30" result="result"/></filter><filter id="esdlYRDZw6M36-filter" x="-150%" width="400%" y="-150%" height="400%"><feGaussianBlur id="esdlYRDZw6M36-filter-blur-0" stdDeviation="20,20" result="result"/></filter></defs><ellipse rx="122.747058" ry="122.747058" transform="matrix(1.439716 0 0 1.439716 431.513412 727.776883)" opacity="0.25" filter="url(#esdlYRDZw6M2-filter)" fill="currentColor" stroke-width="0"/><ellipse rx="122.747058" ry="122.747058" transform="matrix(1.439716 0 0 1.439716 880.715051 754.589552)" opacity="0.09" filter="url(#esdlYRDZw6M3-filter)" fill="currentColor" stroke-width="0"/><ellipse rx="122.747058" ry="122.747058" transform="matrix(1.766488 0 0 1.766488 431.513412 450.513361)" opacity="0.09" filter="url(#esdlYRDZw6M4-filter)" fill="currentColor" stroke-width="0"/><ellipse rx="122.747058" ry="122.747058" transform="matrix(1.268395 0 0 1.268395 1627.793429 805.320667)" opacity="0.09" filter="url(#esdlYRDZw6M5-filter)" fill="currentColor" stroke-width="0"/><ellipse rx="122.747058" ry="122.747058" transform="matrix(1.564596 0 0 1.564596 1614.598091 325.183489)" opacity="0.09" filter="url(#esdlYRDZw6M6-filter)" fill="currentColor" stroke-width="0"/><ellipse rx="122.747058" ry="122.747058" transform="matrix(1.766488 0 0 1.766488 663.774968 349.965138)" opacity="0.06" filter="url(#esdlYRDZw6M7-filter)" fill="currentColor" stroke-width="0"/><ellipse rx="122.747058" ry="122.747058" transform="matrix(.795594 0 0 0.795594 917.713373 360.20719)" opacity="0.09" fill="currentColor" stroke-width="0"/><ellipse rx="122.747058" ry="122.747058" transform="matrix(1.241404 0 0 1.241404 831.886022 325.183489)" opacity="0.25" filter="url(#esdlYRDZw6M9-filter)" fill="currentColor" stroke-width="0"/><ellipse rx="122.747058" ry="122.747058" transform="matrix(1.374418 0 0 1.374418 1568.345426 661.985367)" opacity="0.25" filter="url(#esdlYRDZw6M10-filter)" fill="currentColor" stroke-width="0"/><ellipse rx="97.065936" ry="97.065936" transform="matrix(1.595065 0 0 1.595065 445.943763 467.614278)" opacity="0.21" filter="url(#esdlYRDZw6M11-filter)" fill="currentColor" stroke-width="0"/><ellipse rx="72.190179" ry="72.190179" transform="translate(214.682207 785.281723)" opacity="0.35" fill="currentColor" stroke-width="0"/><ellipse rx="72.190179" ry="72.190179" transform="translate(1699.983608 625.128686)" opacity="0.35" fill="currentColor" stroke-width="0"/><ellipse rx="148.863453" ry="148.863453" transform="matrix(.566813 0 0 0.566813 199.251065 265.587398)" opacity="0.5" filter="url(#esdlYRDZw6M14-filter)" fill="currentColor" stroke-width="0"/><ellipse rx="138.852168" ry="138.852168" transform="matrix(.732445 0 0 0.732445 622.380319 476.167073)" opacity="0.3" filter="url(#esdlYRDZw6M15-filter)" fill="currentColor" stroke-width="0"/><ellipse rx="138.852168" ry="138.852168" transform="matrix(.275391 0 0 0.275391 450.440186 126.925392)" opacity="0.3" fill="currentColor" stroke-width="0"/><ellipse rx="138.852168" ry="138.852168" transform="matrix(.275391 0 0 0.275391 1205.383525 508.094754)" opacity="0.3" fill="currentColor" stroke-width="0"/><ellipse rx="161.051104" ry="161.051104" transform="translate(607.994867 306.563174)" opacity="0.1" filter="url(#esdlYRDZw6M18-filter)" fill="currentColor" stroke-width="0"/><ellipse rx="161.051104" ry="161.051104" transform="translate(1078.764477 566.796343)" opacity="0.1" filter="url(#esdlYRDZw6M19-filter)" fill="currentColor" stroke-width="0"/><ellipse rx="161.051104" ry="161.051104" transform="matrix(.902012 0 0 0.902012 343.408795 458.057834)" opacity="0.2" filter="url(#esdlYRDZw6M20-filter)" fill="currentColor" stroke-width="0"/><ellipse rx="55.714976" ry="55.714976" transform="translate(1472.101674 622.440755)" opacity="0.45" filter="url(#esdlYRDZw6M21-filter)" fill="currentColor" stroke-width="0"/><ellipse rx="87.419188" ry="87.419188" transform="translate(1399.63966 640.357695)" opacity="0.38" filter="url(#esdlYRDZw6M22-filter)" fill="currentColor" stroke-width="0"/><ellipse rx="87.419188" ry="87.419188" transform="matrix(.565956 0 0 0.565956 984.264711 157.525715)" opacity="0.38" filter="url(#esdlYRDZw6M23-filter)" fill="currentColor" stroke-width="0"/><ellipse rx="180.638401" ry="180.638401" transform="matrix(1.115663 0 0 1.115663 1326.28507 328.456972)" opacity="0.2" filter="url(#esdlYRDZw6M24-filter)" fill="currentColor" stroke-width="0"/><ellipse rx="180.638401" ry="180.638401" transform="matrix(1.115663 0 0 1.115663 1646.103565 603.327862)" opacity="0.2" filter="url(#esdlYRDZw6M25-filter)" fill="currentColor" stroke-width="0"/><ellipse rx="61.373529" ry="61.373529" transform="matrix(1.454964 0 0 1.454964 1237.881368 566.725779)" opacity="0.26" filter="url(#esdlYRDZw6M26-filter)" fill="currentColor" stroke-width="0"/><ellipse rx="61.373529" ry="61.373529" transform="matrix(1.12163 0 0 1.12163 1057.435948 381.626195)" opacity="0.26" filter="url(#esdlYRDZw6M27-filter)" fill="currentColor" stroke-width="0"/><ellipse rx="112.3005" ry="112.3005" transform="translate(1671.184684 413.842833)" opacity="0.56" filter="url(#esdlYRDZw6M28-filter)" fill="currentColor" stroke-width="0"/><ellipse rx="112.3005" ry="112.3005" transform="translate(1472.101674 269.826215)" opacity="0.56" filter="url(#esdlYRDZw6M29-filter)" fill="currentColor" stroke-width="0"/><ellipse rx="72.462014" ry="72.462014" transform="translate(1148.58509 287.745176)" opacity="0.79" filter="url(#esdlYRDZw6M30-filter)" fill="currentColor" stroke-width="0"/><ellipse rx="72.462014" ry="72.462014" transform="matrix(.5226 0 0 0.5226 1349.538544 577.868649)" opacity="0.51" filter="url(#esdlYRDZw6M31-filter)" fill="currentColor" stroke-width="0"/><ellipse rx="72.462014" ry="72.462014" transform="matrix(.5226 0 0 0.5226 686.213246 419.995364)" opacity="0.18" fill="currentColor" stroke-width="0"/><ellipse rx="138.6345" ry="138.6345" transform="translate(1682.293643 211.330638)" opacity="0.16" fill="currentColor" stroke-width="0"/><ellipse rx="171.277337" ry="171.277337" transform="translate(1444.571985 419.995364)" opacity="0.4" filter="url(#esdlYRDZw6M34-filter)" fill="currentColor" stroke-width="0"/><ellipse rx="48.422805" ry="48.422805" transform="translate(1601.920578 301.542333)" opacity="0.32" fill="currentColor" stroke-width="0"/><ellipse rx="154.489389" ry="154.489389" transform="matrix(.816088 0 0 0.816088 297.471053 696.197559)" opacity="0.36" filter="url(#esdlYRDZw6M36-filter)" fill="currentColor" stroke-width="0"/><ellipse rx="99.242322" ry="99.242322" transform="translate(205.927836 511.016242)" opacity="0.14" fill="currentColor" stroke-width="0"/><ellipse rx="138.852168" ry="138.852168" transform="matrix(.359407 0 0 0.359407 164.777766 828.151114)" opacity="0.3" fill="currentColor" stroke-width="0"/></svg>
