<svg id="e9f4quxrBU61" xmlns="http://www.w3.org/2000/svg"
		 viewBox="0 0 1920 1080" shape-rendering="geometricPrecision" text-rendering="geometricPrecision">
 <defs>
	<filter id="e9f4quxrBU62-filter" x="-150%" width="400%" y="-150%" height="400%">
	 <feGaussianBlur id="e9f4quxrBU62-filter-blur-0" stdDeviation="20,20" result="result"/>
	</filter>
	<filter id="e9f4quxrBU63-filter" x="-150%" width="400%" y="-150%" height="400%">
	 <feGaussianBlur id="e9f4quxrBU63-filter-blur-0" stdDeviation="30,30" result="result"/>
	</filter>
	<filter id="e9f4quxrBU64-filter" x="-150%" width="400%" y="-150%" height="400%">
	 <feGaussianBlur id="e9f4quxrBU64-filter-blur-0" stdDeviation="20,20" result="result"/>
	</filter>
	<filter id="e9f4quxrBU65-filter" x="-150%" width="400%" y="-150%" height="400%">
	 <feGaussianBlur id="e9f4quxrBU65-filter-blur-0" stdDeviation="50,50" result="result"/>
	</filter>
	<filter id="e9f4quxrBU66-filter" x="-150%" width="400%" y="-150%" height="400%">
	 <feGaussianBlur id="e9f4quxrBU66-filter-blur-0" stdDeviation="20,20" result="result"/>
	</filter>
	<filter id="e9f4quxrBU67-filter" x="-150%" width="400%" y="-150%" height="400%">
	 <feGaussianBlur id="e9f4quxrBU67-filter-blur-0" stdDeviation="40,40" result="result"/>
	</filter>
	<filter id="e9f4quxrBU69-filter" x="-150%" width="400%" y="-150%" height="400%">
	 <feGaussianBlur id="e9f4quxrBU69-filter-blur-0" stdDeviation="30,30" result="result"/>
	</filter>
	<filter id="e9f4quxrBU610-filter" x="-150%" width="400%" y="-150%" height="400%">
	 <feGaussianBlur id="e9f4quxrBU610-filter-blur-0" stdDeviation="20,20" result="result"/>
	</filter>
	<filter id="e9f4quxrBU611-filter" x="-150%" width="400%" y="-150%" height="400%">
	 <feGaussianBlur id="e9f4quxrBU611-filter-blur-0" stdDeviation="10,10" result="result"/>
	</filter>
	<filter id="e9f4quxrBU614-filter" x="-150%" width="400%" y="-150%" height="400%">
	 <feGaussianBlur id="e9f4quxrBU614-filter-blur-0" stdDeviation="16,16" result="result"/>
	</filter>
	<filter id="e9f4quxrBU615-filter" x="-150%" width="400%" y="-150%" height="400%">
	 <feGaussianBlur id="e9f4quxrBU615-filter-blur-0" stdDeviation="40,40" result="result"/>
	</filter>
	<filter id="e9f4quxrBU618-filter" x="-150%" width="400%" y="-150%" height="400%">
	 <feGaussianBlur id="e9f4quxrBU618-filter-blur-0" stdDeviation="30,30" result="result"/>
	</filter>
	<filter id="e9f4quxrBU619-filter" x="-150%" width="400%" y="-150%" height="400%">
	 <feGaussianBlur id="e9f4quxrBU619-filter-blur-0" stdDeviation="20,20" result="result"/>
	</filter>
	<filter id="e9f4quxrBU620-filter" x="-150%" width="400%" y="-150%" height="400%">
	 <feGaussianBlur id="e9f4quxrBU620-filter-blur-0" stdDeviation="14,14" result="result"/>
	</filter>
	<filter id="e9f4quxrBU621-filter" x="-150%" width="400%" y="-150%" height="400%">
	 <feGaussianBlur id="e9f4quxrBU621-filter-blur-0" stdDeviation="4,4" result="result"/>
	</filter>
	<filter id="e9f4quxrBU622-filter" x="-150%" width="400%" y="-150%" height="400%">
	 <feGaussianBlur id="e9f4quxrBU622-filter-blur-0" stdDeviation="4,4" result="result"/>
	</filter>
	<filter id="e9f4quxrBU623-filter" x="-150%" width="400%" y="-150%" height="400%">
	 <feGaussianBlur id="e9f4quxrBU623-filter-blur-0" stdDeviation="10,0" result="result"/>
	</filter>
	<filter id="e9f4quxrBU624-filter" x="-150%" width="400%" y="-150%" height="400%">
	 <feGaussianBlur id="e9f4quxrBU624-filter-blur-0" stdDeviation="6,0" result="result"/>
	</filter>
	<filter id="e9f4quxrBU625-filter" x="-150%" width="400%" y="-150%" height="400%">
	 <feGaussianBlur id="e9f4quxrBU625-filter-blur-0" stdDeviation="6,0" result="result"/>
	</filter>
	<filter id="e9f4quxrBU626-filter" x="-150%" width="400%" y="-150%" height="400%">
	 <feGaussianBlur id="e9f4quxrBU626-filter-blur-0" stdDeviation="10,10" result="result"/>
	</filter>
	<filter id="e9f4quxrBU627-filter" x="-150%" width="400%" y="-150%" height="400%">
	 <feGaussianBlur id="e9f4quxrBU627-filter-blur-0" stdDeviation="10,10" result="result"/>
	</filter>
	<filter id="e9f4quxrBU628-filter" x="-150%" width="400%" y="-150%" height="400%">
	 <feGaussianBlur id="e9f4quxrBU628-filter-blur-0" stdDeviation="0,0" result="result"/>
	</filter>
	<filter id="e9f4quxrBU629-filter" x="-150%" width="400%" y="-150%" height="400%">
	 <feGaussianBlur id="e9f4quxrBU629-filter-blur-0" stdDeviation="40,40" result="result"/>
	</filter>
	<filter id="e9f4quxrBU632-filter" x="-150%" width="400%" y="-150%" height="400%">
	 <feGaussianBlur id="e9f4quxrBU632-filter-blur-0" stdDeviation="30,30" result="result"/>
	</filter>
	<filter id="e9f4quxrBU634-filter" x="-150%" width="400%" y="-150%" height="400%">
	 <feGaussianBlur id="e9f4quxrBU634-filter-blur-0" stdDeviation="20,20" result="result"/>
	</filter>
 </defs>
 <ellipse rx="122.747058" ry="122.747058" transform="matrix(1.439716 0 0 1.439716 371.510794 751.281639)" opacity="0.25"
					filter="url(#e9f4quxrBU62-filter)" fill="currentColor" stroke-width="0"/>
 <ellipse rx="122.747058" ry="122.747058" transform="matrix(1.439716 0 0 1.439716 880.715051 754.589552)" opacity="0.09"
					filter="url(#e9f4quxrBU63-filter)" fill="currentColor" stroke-width="0"/>
 <ellipse rx="122.747058" ry="122.747058" transform="matrix(1.766488 0 0 1.766488 431.513412 450.513361)" opacity="0.09"
					filter="url(#e9f4quxrBU64-filter)" fill="currentColor" stroke-width="0"/>
 <ellipse rx="122.747058" ry="122.747058" transform="matrix(1.268395 0 0 1.268395 1627.793429 805.320667)"
					opacity="0.09" filter="url(#e9f4quxrBU65-filter)" fill="currentColor" stroke-width="0"/>
 <ellipse rx="122.747058" ry="122.747058" transform="matrix(1.564596 0 0 1.564596 1614.598091 325.183489)"
					opacity="0.09" filter="url(#e9f4quxrBU66-filter)" fill="currentColor" stroke-width="0"/>
 <ellipse rx="122.747058" ry="122.747058" transform="matrix(1.766488 0 0 1.766488 663.774968 349.965138)" opacity="0.06"
					filter="url(#e9f4quxrBU67-filter)" fill="currentColor" stroke-width="0"/>
 <ellipse rx="122.747058" ry="122.747058" transform="matrix(.795594 0 0 0.795594 917.713373 360.20719)" opacity="0.09"
					fill="currentColor" stroke-width="0"/>
 <ellipse rx="122.747058" ry="122.747058" transform="matrix(1.241404 0 0 1.241404 1100.223248 743.65139)" opacity="0.25"
					filter="url(#e9f4quxrBU69-filter)" fill="currentColor" stroke-width="0"/>
 <ellipse rx="122.747058" ry="122.747058" transform="matrix(1.374418 0 0 1.374418 1568.345426 661.985367)"
					opacity="0.25" filter="url(#e9f4quxrBU610-filter)" fill="currentColor" stroke-width="0"/>
 <ellipse rx="97.065936" ry="97.065936" transform="matrix(1.595065 0 0 1.595065 509.927886 674.064163)" opacity="0.21"
					filter="url(#e9f4quxrBU611-filter)" fill="currentColor" stroke-width="0"/>
 <ellipse rx="72.190179" ry="72.190179" transform="translate(230.417117 877.510846)" opacity="0.35" fill="currentColor"
					stroke-width="0"/>
 <ellipse rx="72.190179" ry="72.190179" transform="translate(1615.849322 768.387738)" opacity="0.35" fill="currentColor"
					stroke-width="0"/>
 <ellipse rx="148.863453" ry="148.863453" transform="matrix(.566813 0 0 0.566813 339.170249 574.560736)" opacity="0.5"
					filter="url(#e9f4quxrBU614-filter)" fill="currentColor" stroke-width="0"/>
 <ellipse rx="138.852168" ry="138.852168" transform="matrix(.732445 0 0 0.732445 640.379061 785.668188)" opacity="0.3"
					filter="url(#e9f4quxrBU615-filter)" fill="currentColor" stroke-width="0"/>
 <ellipse rx="138.852168" ry="138.852168" transform="matrix(.275391 0 0 0.275391 305.170158 899.323376)" opacity="0.3"
					fill="currentColor" stroke-width="0"/>
 <ellipse rx="138.852168" ry="138.852168" transform="matrix(.275391 0 0 0.275391 984.264711 635.825526)" opacity="0.3"
					fill="currentColor" stroke-width="0"/>
 <ellipse rx="161.051104" ry="161.051104" transform="translate(768.479767 566.796343)" opacity="0.1"
					filter="url(#e9f4quxrBU618-filter)" fill="currentColor" stroke-width="0"/>
 <ellipse rx="161.051104" ry="161.051104" transform="matrix(.902012 0 0 0.902012 194.789891 349.965138)" opacity="0.2"
					filter="url(#e9f4quxrBU619-filter)" fill="currentColor" stroke-width="0"/>
 <ellipse rx="55.714976" ry="55.714976" transform="translate(1472.101674 622.440755)" opacity="0.45"
					filter="url(#e9f4quxrBU620-filter)" fill="currentColor" stroke-width="0"/>
 <ellipse rx="87.419188" ry="87.419188" transform="translate(1285.366723 877.510846)" opacity="0.38"
					filter="url(#e9f4quxrBU621-filter)" fill="currentColor" stroke-width="0"/>
 <ellipse rx="87.419188" ry="87.419188" transform="matrix(.565956 0 0 0.565956 1713.119196 800.238897)" opacity="0.38"
					filter="url(#e9f4quxrBU622-filter)" fill="currentColor" stroke-width="0"/>
 <ellipse rx="180.638401" ry="180.638401" transform="matrix(1.115663 0 0 1.115663 1161.53158 425.702684)" opacity="0.2"
					filter="url(#e9f4quxrBU623-filter)" fill="currentColor" stroke-width="0"/>
 <ellipse rx="61.373529" ry="61.373529" transform="matrix(1.454964 0 0 1.454964 1146.732226 751.281639)" opacity="0.26"
					filter="url(#e9f4quxrBU624-filter)" fill="currentColor" stroke-width="0"/>
 <ellipse rx="61.373529" ry="61.373529" transform="matrix(1.12163 0 0 1.12163 905.054459 658.938476)" opacity="0.26"
					filter="url(#e9f4quxrBU625-filter)" fill="currentColor" stroke-width="0"/>
 <ellipse rx="112.3005" ry="112.3005" transform="translate(1310.248035 704.707563)" opacity="0.56"
					filter="url(#e9f4quxrBU626-filter)" fill="currentColor" stroke-width="0"/>
 <ellipse rx="112.3005" ry="112.3005" transform="translate(1503.548822 642.289052)" opacity="0.56"
					filter="url(#e9f4quxrBU627-filter)" fill="currentColor" stroke-width="0"/>
 <ellipse rx="72.462014" ry="72.462014" transform="translate(1399.63966 800.238897)" opacity="0.79"
					filter="url(#e9f4quxrBU628-filter)" fill="currentColor" stroke-width="0"/>
 <ellipse rx="72.462014" ry="72.462014" transform="matrix(.5226 0 0 0.5226 1349.538544 577.868649)" opacity="0.51"
					filter="url(#e9f4quxrBU629-filter)" fill="currentColor" stroke-width="0"/>
 <ellipse rx="72.462014" ry="72.462014" transform="matrix(.5226 0 0 0.5226 686.213246 419.995364)" opacity="0.18"
					fill="currentColor" stroke-width="0"/>
 <ellipse rx="138.6345" ry="138.6345" transform="translate(1673.630466 233.682156)" opacity="0.16" fill="currentColor"
					stroke-width="0"/>
 <ellipse rx="171.277337" ry="171.277337" transform="translate(1444.571985 419.995364)" opacity="0.4"
					filter="url(#e9f4quxrBU632-filter)" fill="currentColor" stroke-width="0"/>
 <ellipse rx="48.422805" ry="48.422805" transform="translate(1601.920578 301.542333)" opacity="0.32" fill="currentColor"
					stroke-width="0"/>
 <ellipse rx="154.489389" ry="154.489389" transform="matrix(.816088 0 0 0.816088 319.866827 778.246673)" opacity="0.36"
					filter="url(#e9f4quxrBU634-filter)" fill="currentColor" stroke-width="0"/>
 <ellipse rx="99.242322" ry="99.242322" transform="translate(205.927836 511.016242)" opacity="0.14" fill="currentColor"
					stroke-width="0"/>
 <ellipse rx="138.852168" ry="138.852168" transform="matrix(.359407 0 0 0.359407 168.325115 949.227817)" opacity="0.3"
					fill="currentColor" stroke-width="0"/>
</svg>
