<svg id="eEK6qptXSv51" xmlns="http://www.w3.org/2000/svg"
		 viewBox="0 0 1920 1080" shape-rendering="geometricPrecision" text-rendering="geometricPrecision">
 <defs>
	<filter id="eEK6qptXSv52-filter" x="-150%" width="400%" y="-150%" height="400%">
	 <feGaussianBlur id="eEK6qptXSv52-filter-blur-0" stdDeviation="20,20" result="result"/>
	</filter>
	<filter id="eEK6qptXSv53-filter" x="-150%" width="400%" y="-150%" height="400%">
	 <feGaussianBlur id="eEK6qptXSv53-filter-blur-0" stdDeviation="30,30" result="result"/>
	</filter>
	<filter id="eEK6qptXSv54-filter" x="-150%" width="400%" y="-150%" height="400%">
	 <feGaussianBlur id="eEK6qptXSv54-filter-blur-0" stdDeviation="20,20" result="result"/>
	</filter>
	<filter id="eEK6qptXSv55-filter" x="-150%" width="400%" y="-150%" height="400%">
	 <feGaussianBlur id="eEK6qptXSv55-filter-blur-0" stdDeviation="50,50" result="result"/>
	</filter>
	<filter id="eEK6qptXSv56-filter" x="-150%" width="400%" y="-150%" height="400%">
	 <feGaussianBlur id="eEK6qptXSv56-filter-blur-0" stdDeviation="20,20" result="result"/>
	</filter>
	<filter id="eEK6qptXSv57-filter" x="-150%" width="400%" y="-150%" height="400%">
	 <feGaussianBlur id="eEK6qptXSv57-filter-blur-0" stdDeviation="40,40" result="result"/>
	</filter>
	<filter id="eEK6qptXSv59-filter" x="-150%" width="400%" y="-150%" height="400%">
	 <feGaussianBlur id="eEK6qptXSv59-filter-blur-0" stdDeviation="30,30" result="result"/>
	</filter>
	<filter id="eEK6qptXSv510-filter" x="-150%" width="400%" y="-150%" height="400%">
	 <feGaussianBlur id="eEK6qptXSv510-filter-blur-0" stdDeviation="20,20" result="result"/>
	</filter>
	<filter id="eEK6qptXSv513-filter" x="-150%" width="400%" y="-150%" height="400%">
	 <feGaussianBlur id="eEK6qptXSv513-filter-blur-0" stdDeviation="16,16" result="result"/>
	</filter>
	<filter id="eEK6qptXSv514-filter" x="-150%" width="400%" y="-150%" height="400%">
	 <feGaussianBlur id="eEK6qptXSv514-filter-blur-0" stdDeviation="40,40" result="result"/>
	</filter>
	<filter id="eEK6qptXSv516-filter" x="-150%" width="400%" y="-150%" height="400%">
	 <feGaussianBlur id="eEK6qptXSv516-filter-blur-0" stdDeviation="30,30" result="result"/>
	</filter>
	<filter id="eEK6qptXSv517-filter" x="-150%" width="400%" y="-150%" height="400%">
	 <feGaussianBlur id="eEK6qptXSv517-filter-blur-0" stdDeviation="20,20" result="result"/>
	</filter>
	<filter id="eEK6qptXSv518-filter" x="-150%" width="400%" y="-150%" height="400%">
	 <feGaussianBlur id="eEK6qptXSv518-filter-blur-0" stdDeviation="14,14" result="result"/>
	</filter>
	<filter id="eEK6qptXSv519-filter" x="-150%" width="400%" y="-150%" height="400%">
	 <feGaussianBlur id="eEK6qptXSv519-filter-blur-0" stdDeviation="4,4" result="result"/>
	</filter>
	<filter id="eEK6qptXSv520-filter" x="-150%" width="400%" y="-150%" height="400%">
	 <feGaussianBlur id="eEK6qptXSv520-filter-blur-0" stdDeviation="4,4" result="result"/>
	</filter>
	<filter id="eEK6qptXSv521-filter" x="-150%" width="400%" y="-150%" height="400%">
	 <feGaussianBlur id="eEK6qptXSv521-filter-blur-0" stdDeviation="10,0" result="result"/>
	</filter>
	<filter id="eEK6qptXSv522-filter" x="-150%" width="400%" y="-150%" height="400%">
	 <feGaussianBlur id="eEK6qptXSv522-filter-blur-0" stdDeviation="6,0" result="result"/>
	</filter>
	<filter id="eEK6qptXSv523-filter" x="-150%" width="400%" y="-150%" height="400%">
	 <feGaussianBlur id="eEK6qptXSv523-filter-blur-0" stdDeviation="6,0" result="result"/>
	</filter>
	<filter id="eEK6qptXSv524-filter" x="-150%" width="400%" y="-150%" height="400%">
	 <feGaussianBlur id="eEK6qptXSv524-filter-blur-0" stdDeviation="10,10" result="result"/>
	</filter>
	<filter id="eEK6qptXSv525-filter" x="-150%" width="400%" y="-150%" height="400%">
	 <feGaussianBlur id="eEK6qptXSv525-filter-blur-0" stdDeviation="10,10" result="result"/>
	</filter>
	<filter id="eEK6qptXSv526-filter" x="-150%" width="400%" y="-150%" height="400%">
	 <feGaussianBlur id="eEK6qptXSv526-filter-blur-0" stdDeviation="0,0" result="result"/>
	</filter>
	<filter id="eEK6qptXSv527-filter" x="-150%" width="400%" y="-150%" height="400%">
	 <feGaussianBlur id="eEK6qptXSv527-filter-blur-0" stdDeviation="40,40" result="result"/>
	</filter>
	<filter id="eEK6qptXSv530-filter" x="-150%" width="400%" y="-150%" height="400%">
	 <feGaussianBlur id="eEK6qptXSv530-filter-blur-0" stdDeviation="30,30" result="result"/>
	</filter>
	<filter id="eEK6qptXSv532-filter" x="-150%" width="400%" y="-150%" height="400%">
	 <feGaussianBlur id="eEK6qptXSv532-filter-blur-0" stdDeviation="20,20" result="result"/>
	</filter>
 </defs>
 <ellipse rx="122.747058" ry="122.747058" transform="matrix(1.439716 0 0 1.439716 371.510794 751.281639)" opacity="0.25"
					filter="url(#eEK6qptXSv52-filter)" fill="currentColor" stroke-width="0"/>
 <ellipse rx="122.747058" ry="122.747058" transform="matrix(1.439716 0 0 1.439716 880.715051 754.589552)" opacity="0.09"
					filter="url(#eEK6qptXSv53-filter)" fill="currentColor" stroke-width="0"/>
 <ellipse rx="122.747058" ry="122.747058" transform="matrix(1.766488 0 0 1.766488 431.513412 450.513361)" opacity="0.09"
					filter="url(#eEK6qptXSv54-filter)" fill="currentColor" stroke-width="0"/>
 <ellipse rx="122.747058" ry="122.747058" transform="matrix(1.268395 0 0 1.268395 1627.793429 805.320667)"
					opacity="0.09" filter="url(#eEK6qptXSv55-filter)" fill="currentColor" stroke-width="0"/>
 <ellipse rx="122.747058" ry="122.747058" transform="matrix(1.564596 0 0 1.564596 1614.598091 325.183489)"
					opacity="0.09" filter="url(#eEK6qptXSv56-filter)" fill="currentColor" stroke-width="0"/>
 <ellipse rx="122.747058" ry="122.747058" transform="matrix(1.766488 0 0 1.766488 663.774968 349.965138)" opacity="0.06"
					filter="url(#eEK6qptXSv57-filter)" fill="currentColor" stroke-width="0"/>
 <ellipse rx="122.747058" ry="122.747058" transform="matrix(.795594 0 0 0.795594 795.836862 395.622778)" opacity="0.09"
					fill="currentColor" stroke-width="0"/>
 <ellipse rx="122.747058" ry="122.747058" transform="matrix(1.241404 0 0 1.241404 1100.223248 743.65139)" opacity="0.25"
					filter="url(#eEK6qptXSv59-filter)" fill="currentColor" stroke-width="0"/>
 <ellipse rx="122.747058" ry="122.747058" transform="matrix(1.374418 0 0 1.374418 1568.345426 661.985367)"
					opacity="0.25" filter="url(#eEK6qptXSv510-filter)" fill="currentColor" stroke-width="0"/>
 <ellipse rx="72.190179" ry="72.190179" transform="translate(230.417117 805.320667)" opacity="0.35" fill="currentColor"
					stroke-width="0"/>
 <ellipse rx="72.190179" ry="72.190179" transform="translate(1615.849322 768.387738)" opacity="0.35" fill="currentColor"
					stroke-width="0"/>
 <ellipse rx="148.863453" ry="148.863453" transform="matrix(.566813 0 0 0.566813 339.170249 574.560736)" opacity="0.5"
					filter="url(#eEK6qptXSv513-filter)" fill="currentColor" stroke-width="0"/>
 <ellipse rx="138.852168" ry="138.852168" transform="matrix(.732445 0 0 0.732445 640.379061 785.668188)" opacity="0.3"
					filter="url(#eEK6qptXSv514-filter)" fill="currentColor" stroke-width="0"/>
 <ellipse rx="138.852168" ry="138.852168" transform="matrix(.275391 0 0 0.275391 1184.97086 615.737298)" opacity="0.3"
					fill="currentColor" stroke-width="0"/>
 <ellipse rx="161.051104" ry="161.051104" transform="translate(768.479767 566.796343)" opacity="0.1"
					filter="url(#eEK6qptXSv516-filter)" fill="currentColor" stroke-width="0"/>
 <ellipse rx="161.051104" ry="161.051104" transform="matrix(.902012 0 0 0.902012 495.109033 481.964236)" opacity="0.2"
					filter="url(#eEK6qptXSv517-filter)" fill="currentColor" stroke-width="0"/>
 <ellipse rx="55.714976" ry="55.714976" transform="translate(1472.101674 622.440755)" opacity="0.45"
					filter="url(#eEK6qptXSv518-filter)" fill="currentColor" stroke-width="0"/>
 <ellipse rx="87.419188" ry="87.419188" transform="translate(1655.764614 562.209724)" opacity="0.38"
					filter="url(#eEK6qptXSv519-filter)" fill="currentColor" stroke-width="0"/>
 <ellipse rx="87.419188" ry="87.419188" transform="matrix(.565956 0 0 0.565956 1718.342476 736.192774)" opacity="0.38"
					filter="url(#eEK6qptXSv520-filter)" fill="currentColor" stroke-width="0"/>
 <ellipse rx="180.638401" ry="180.638401" transform="matrix(1.115663 0 0 1.115663 1161.53158 425.702684)" opacity="0.2"
					filter="url(#eEK6qptXSv521-filter)" fill="currentColor" stroke-width="0"/>
 <ellipse rx="61.373529" ry="61.373529" transform="matrix(1.454964 0 0 1.454964 1146.732226 751.281639)" opacity="0.26"
					filter="url(#eEK6qptXSv522-filter)" fill="currentColor" stroke-width="0"/>
 <ellipse rx="61.373529" ry="61.373529" transform="matrix(1.12163 0 0 1.12163 960 480.612314)" opacity="0.26"
					filter="url(#eEK6qptXSv523-filter)" fill="currentColor" stroke-width="0"/>
 <ellipse rx="112.3005" ry="112.3005" transform="translate(703.994148 610.258564)" opacity="0.56"
					filter="url(#eEK6qptXSv524-filter)" fill="currentColor" stroke-width="0"/>
 <ellipse rx="112.3005" ry="112.3005" transform="translate(1503.548822 642.289052)" opacity="0.56"
					filter="url(#eEK6qptXSv525-filter)" fill="currentColor" stroke-width="0"/>
 <ellipse rx="72.462014" ry="72.462014" transform="translate(1314.945179 649.628912)" opacity="0.79"
					filter="url(#eEK6qptXSv526-filter)" fill="currentColor" stroke-width="0"/>
 <ellipse rx="72.462014" ry="72.462014" transform="matrix(.5226 0 0 0.5226 1349.538544 577.868649)" opacity="0.51"
					filter="url(#eEK6qptXSv527-filter)" fill="currentColor" stroke-width="0"/>
 <ellipse rx="72.462014" ry="72.462014" transform="matrix(.5226 0 0 0.5226 686.213246 419.995364)" opacity="0.18"
					fill="currentColor" stroke-width="0"/>
 <ellipse rx="138.6345" ry="138.6345" transform="translate(1688.039501 411.773925)" opacity="0.16" fill="currentColor"
					stroke-width="0"/>
 <ellipse rx="171.277337" ry="171.277337" transform="translate(1444.571985 419.995364)" opacity="0.4"
					filter="url(#eEK6qptXSv530-filter)" fill="currentColor" stroke-width="0"/>
 <ellipse rx="48.422805" ry="48.422805" transform="translate(1601.920578 301.542333)" opacity="0.32" fill="currentColor"
					stroke-width="0"/>
 <ellipse rx="154.489389" ry="154.489389" transform="matrix(.816088 0 0 0.816088 319.866827 778.246673)" opacity="0.36"
					filter="url(#eEK6qptXSv532-filter)" fill="currentColor" stroke-width="0"/>
 <ellipse rx="99.242322" ry="99.242322" transform="translate(205.927836 511.016242)" opacity="0.14" fill="currentColor"
					stroke-width="0"/>
 <ellipse rx="138.852168" ry="138.852168" transform="matrix(.359407 0 0 0.359407 158.226938 840.577911)" opacity="0.3"
					fill="currentColor" stroke-width="0"/>
</svg>
