<svg id="Avatar_Filled_Outline" height="512" viewBox="0 0 128 128" width="512" xmlns="http://www.w3.org/2000/svg" data-name="Avatar Filled Outline"><path d="m103.636 83.916c-7.012-10.549-4.952-35.75-5.851-47.7-2.459-32.681-41.466-41.127-48.585-25.864-8.989.339-16.027 11.363-18.836 25.864-2.279 11.765 1.161 37.151-5.851 47.7-9.158 13.778-14.23 25.037-1.256 28.773l81.4.072c12.967-3.737 8.137-15.067-1.021-28.845z" fill="#9b4e4e"/><path d="m103.513 109.378c-2.332-3.72-8.912-11.117-20.76-16.646-3.3-1.539-5.99-2.562-7.363-5.649h-22.883c-1.376 3.079-4.062 4.113-7.354 5.649-11.848 5.529-18.428 12.926-20.76 16.646-2.722 4.341-.2 6.695 3.694 8.845 4.02 2.213 16.249 6.86 35.866 6.86s31.846-4.647 35.866-6.86c3.897-2.15 6.416-4.504 3.694-8.845z" fill="#f7465b"/><path d="m83.6 106.31a8.956 8.956 0 0 1 -6.38 4.1s-13.33 2.38-26.55 0c-11.42-4.33-11.85-14.06-2.57-19.12 2.34-1.22 4.11-2.66 4.9-5.8a17.074 17.074 0 0 0 .45-4.25c2.61 1.12 18.26 1.13 20.88.02a17.851 17.851 0 0 0 .43 4.2c.8 3.27 2.67 4.71 5.14 5.95 6.82 6.16 4.73 13.21 3.7 14.9z" fill="#ff7364"/><path d="m74.76 85.46a19.044 19.044 0 0 1 -10.89 3.18 19.2 19.2 0 0 1 -10.87-3.15 17.074 17.074 0 0 0 .45-4.25c2.61 1.12 18.26 1.13 20.88.02a17.851 17.851 0 0 0 .43 4.2z" fill="#ed4850"/><path d="m96.02 98.88c-2.71-10.9-3.26-21.45-1.86-29 .947-5.049 2.854-12.473 3.661-19.907a45.328 45.328 0 0 0 .239-5.49c-.043-3.115-.1-5.937-.28-8.263-2.45-32.69-41.46-41.13-48.58-25.87-8.99.34-16.03 11.37-18.84 25.87-.2 1.057-.363 2.224-.487 3.48a54.756 54.756 0 0 0 .733 15.59c1.051 5.54 2.516 10.748 3.234 14.59 1.4 7.55.85 18.1-1.86 29a25.927 25.927 0 0 0 -.52 2.63c-2.26 15.49 12.66 18.1 17.81 12.63a6.5 6.5 0 0 0 1.46-3.73c.61-4.64-.89-11.97-2.57-19.12 3.21-1.67 5.35-3.76 5.35-10.06 10.331 0 11.407.01 20.88.02v.01c0 6.36 2.18 8.41 5.44 10.08-1.68 7.13-3.16 14.44-2.56 19.07a6.5 6.5 0 0 0 1.46 3.73c5.14 5.46 20.01 2.87 17.82-12.54a25.448 25.448 0 0 0 -.53-2.72z" fill="#9b4e4e"/><path d="m83.4 74.11a50.364 50.364 0 0 1 -.9 5.86c-.7 3.41-1.73 7.36-2.67 11.37-3.26-1.67-5.44-3.72-5.44-10.08v-.01a20.566 20.566 0 0 0 9.01-7.14z" fill="#874242"/><path d="m53.51 81.23c0 6.3-2.14 8.39-5.35 10.06-.074-.353-2.06-7.91-2.76-11.32a55.078 55.078 0 0 1 -.9-6.08 20.16 20.16 0 0 0 9.01 7.34z" fill="#874242"/><path d="m39.29 45.82c1.2-7.94 3.75-20.66 14.32-22.24 14.79-9.44 25.02.95 30.74 12.05a41.1 41.1 0 0 1 4.54 17.13v.01a39.774 39.774 0 0 1 -1.38 12.2c-2.48 9.07-7.08 13.72-13.12 16.29a38.282 38.282 0 0 1 -8.61 2.36 11.028 11.028 0 0 1 -3.67-.01 37.4 37.4 0 0 1 -8.6-2.37c-7.67-3.3-12.93-10.05-14.48-25.16-.1-.94-.16-1.88-.19-2.83v-.01a41.907 41.907 0 0 1 .45-7.42z" fill="#ff977b"/><g fill="#473049"><path d="m53.824 47.8a2.168 2.168 0 0 0 -1.2-.629 6.091 6.091 0 0 0 -1.924-.126 8.384 8.384 0 0 0 -1.964.362 7.76 7.76 0 0 1 -1.921.612l-.126.009a.656.656 0 0 1 -.7-.608.7.7 0 0 1 .027-.238 3 3 0 0 1 2.005-1.716 8.883 8.883 0 0 1 2.513-.6 7.941 7.941 0 0 1 2.639.207 4.48 4.48 0 0 1 1.345.6 2.953 2.953 0 0 1 1.115 1.3.981.981 0 0 1 -1.673 1z"/><rect height="6.425" rx="2.567" transform="matrix(-1 0 0 -1 102.285 99.986)" width="5.225" x="48.53" y="46.781"/><path d="m72.332 46.983a2.961 2.961 0 0 1 1.116-1.3 4.475 4.475 0 0 1 1.344-.6 7.943 7.943 0 0 1 2.639-.207 8.867 8.867 0 0 1 2.513.6 3 3 0 0 1 2 1.716.656.656 0 0 1 -.437.819.636.636 0 0 1 -.235.027l-.128-.009a7.747 7.747 0 0 1 -1.921-.612 8.4 8.4 0 0 0 -1.964-.362 6.089 6.089 0 0 0 -1.924.126 2.172 2.172 0 0 0 -1.2.629l-.135.179a.981.981 0 0 1 -1.674-1z"/><rect height="6.425" rx="2.567" width="5.225" x="74.211" y="46.781"/><path d="m63.92 61.78c-.03 0-3.01-.073-3.01-1.71a1 1 0 0 1 1.856-.518 3.916 3.916 0 0 0 1.154.228 3.868 3.868 0 0 0 1.144-.228 1 1 0 0 1 1.856.518c0 1.637-2.97 1.71-3 1.71z"/><path d="m63.93 68.43a11.438 11.438 0 0 1 -5.266-1.372 1 1 0 0 1 1.152-1.635 9.838 9.838 0 0 0 4.114 1.007 9.72 9.72 0 0 0 4.119-1.01 1 1 0 0 1 1.142 1.641 11.52 11.52 0 0 1 -5.261 1.369z"/><path d="m44.239 44.65a1 1 0 0 1 -.815-1.577c.772-1.093 2.656-1.573 4.1-1.783 3.267-.476 7.68-.088 9.795 1.574a1 1 0 0 1 -1.236 1.573c-1.594-1.253-5.456-1.577-8.27-1.167-1.832.266-2.6.743-2.755.958a1 1 0 0 1 -.819.422z"/><path d="m83.731 44.65a1 1 0 0 1 -.815-.42c-.155-.216-.937-.7-2.788-.964-2.81-.4-6.655-.076-8.24 1.171a1 1 0 1 1 -1.237-1.573c2.106-1.654 6.505-2.046 9.761-1.578 1.454.209 3.352.688 4.133 1.784a1 1 0 0 1 -.814 1.58z"/><path d="m104.473 83.366c-5.093-7.654-5.254-23.421-5.384-36.09-.043-4.165-.083-8.1-.312-11.131a36.28 36.28 0 0 0 -29.677-33.635c-9.425-1.725-17.4.97-20.537 6.879-8.691.772-16.178 11.128-19.184 26.64-.831 4.284-.918 10.305-1.009 16.679-.163 11.305-.348 24.118-4.693 30.658-5.863 8.813-10.974 17.821-8.706 24 1.022 2.788 3.5 4.818 7.342 6.063.4 2.61 2.869 4.322 5.293 5.661 1.294.715 13.311 6.985 36.344 6.985s35.06-6.27 36.353-6.984c2.4-1.324 4.852-3.018 5.277-5.591 3.881-1.256 6.393-3.316 7.433-6.151 2.32-6.316-3.013-15.668-8.54-23.983zm-5.136 33.979c-1.248.689-12.846 6.735-35.387 6.735s-34.129-6.046-35.377-6.735c-3.07-1.7-4.323-3.044-4.323-4.655a5.38 5.38 0 0 1 .988-2.781 32.829 32.829 0 0 1 5.014-5.931c-.245 8.168 4.525 11.462 6.758 12.541a12.618 12.618 0 0 0 5.464 1.236 10.314 10.314 0 0 0 7.519-2.925 6.7 6.7 0 0 0 1.547-3.286 75.35 75.35 0 0 0 12 .933 89.875 89.875 0 0 0 13.066-.944 6.73 6.73 0 0 0 1.539 3.292 10.335 10.335 0 0 0 7.532 2.929 12.612 12.612 0 0 0 5.4-1.208c2.218-1.059 6.965-4.294 6.817-12.331a33.183 33.183 0 0 1 4.771 5.7 5.339 5.339 0 0 1 .987 2.835c-.022 1.564-1.312 2.939-4.315 4.595zm-59.5-64.127v-.006a41.029 41.029 0 0 1 .438-7.242c1.4-9.235 4.19-20.012 13.48-21.4a.993.993 0 0 0 .39-.146c5.041-3.218 9.862-4.239 14.32-3.038 7.119 1.921 12.083 9.055 14.993 14.7a40.329 40.329 0 0 1 4.433 16.714v.012a38.7 38.7 0 0 1 -1.346 11.894c-2.173 7.949-6.159 12.916-12.545 15.632a37.281 37.281 0 0 1 -8.382 2.3 10.078 10.078 0 0 1 -3.342-.01 36.443 36.443 0 0 1 -8.355-2.3l-.04-.018c-8.219-3.547-12.493-11.053-13.856-24.335-.093-.875-.155-1.775-.186-2.757zm14.628 29.462a40.878 40.878 0 0 0 7.475 1.92 11.933 11.933 0 0 0 2.03.174 12.066 12.066 0 0 0 1.976-.164 41.7 41.7 0 0 0 7.486-1.91c.29 5.211 2.211 7.5 5.379 9.241-1.509 6.5-2.8 13.015-2.485 17.613a85.709 85.709 0 0 1 -24.51.031c.324-4.6-.98-11.195-2.51-17.777 2.963-1.708 4.863-4.02 5.159-9.128zm56.67 23.985c-.786 2.142-2.646 3.707-5.652 4.772a8.509 8.509 0 0 0 -1.127-2.589 37.339 37.339 0 0 0 -6.715-7.612c-.128-.859-.293-1.73-.51-2.6a83.945 83.945 0 0 1 -1.831-28.646 1 1 0 0 0 -.884-1.1 1.012 1.012 0 0 0 -1.105.884 86.023 86.023 0 0 0 1.879 29.348 24.965 24.965 0 0 1 .529 2.753c.832 6.11-1.175 10.8-5.5 12.865-3.638 1.737-8.3 1.173-10.615-1.286a5.709 5.709 0 0 1 -1.2-3.181c-.572-4.47.878-11.6 2.532-18.634.322-1.368.65-2.731.972-4.067.636-2.634 1.237-5.121 1.722-7.393a1 1 0 1 0 -1.955-.418c-.481 2.247-1.078 4.721-1.71 7.342-.223.922-.448 1.867-.672 2.808-2.182-1.29-3.76-3.12-3.887-8.016 6.627-3.028 10.794-8.337 13.07-16.66a40.665 40.665 0 0 0 1.414-12.428c.15-1.358 2.423-23.959-7.059-34.128a1 1 0 1 0 -1.463 1.363c5.167 5.542 6.581 15.21 6.833 22.583a42.3 42.3 0 0 0 -2.963-7.453c-3.094-6.006-8.425-13.608-16.25-15.718-4.968-1.339-10.263-.274-15.738 3.17-10.016 1.643-13.119 12.612-14.411 19.742 0-6.324.772-13.673 3.285-17.207a1 1 0 0 0 -1.629-1.159c-5.029 7.071-3.774 25.655-2.648 29.411.034.979.095 1.891.188 2.77 1.412 13.768 5.89 21.719 14.465 25.685-.125 4.776-1.66 6.64-3.673 7.9-.217-.912-.435-1.828-.651-2.723-.627-2.6-1.22-5.056-1.693-7.28a1 1 0 1 0 -1.958.416c.475 2.251 1.075 4.721 1.703 7.332.318 1.316.641 2.659.959 4.008 1.67 7.114 3.136 14.31 2.551 18.767a5.552 5.552 0 0 1 -1.2 3.168c-2.326 2.473-7.011 3.026-10.661 1.264-4.356-2.105-6.335-6.865-5.43-13.067a24.346 24.346 0 0 1 .5-2.53 86.2 86.2 0 0 0 1.883-29.35 1 1 0 1 0 -1.988.218 84.149 84.149 0 0 1 -1.835 28.648c-.2.811-.356 1.588-.478 2.364a37.508 37.508 0 0 0 -6.991 7.848 8.577 8.577 0 0 0 -1.108 2.524c-2.977-1.051-4.815-2.59-5.585-4.69-1.967-5.363 3.19-14.237 8.494-22.209 4.671-7.031 4.86-20.157 5.026-31.738.091-6.282.176-12.216.973-16.326 2.891-14.922 9.916-24.759 17.9-25.061a1 1 0 0 0 .868-.577c2.535-5.431 9.853-7.9 18.633-6.294a34.3 34.3 0 0 1 28.044 31.822c.224 2.969.264 6.871.306 11 .132 12.933.3 29.029 5.718 37.177 4.94 7.431 10.352 16.673 8.328 22.188z"/><path d="m51.688 15.438a1 1 0 0 0 1.463 1.362c6.845-7.337 15.078-4.951 16.8-3.622a1 1 0 1 0 1.22-1.578c-2.371-1.831-11.759-4.437-19.483 3.838z"/></g></svg>